<?xml version="1.0" encoding="UTF-8"?>
<svg width="20px" height="20px" viewBox="0 0 20 20" version="1.1" xmlns="http://www.w3.org/2000/svg" xmlns:xlink="http://www.w3.org/1999/xlink">
    <title>40F946A2-4E84-4901-8F40-DABEE9749BC1</title>
    <g id="Develop" stroke="none" stroke-width="1" fill="none" fill-rule="evenodd">
        <g id="develop-UI-kit" transform="translate(-576.000000, -2621.000000)">
            <g id="Logo/Netsuite" transform="translate(576.000000, 2621.000000)">
                <g id="Netsuite" transform="translate(1.666667, 2.083333)">
                    <path d="M3.87124902,4.34782609 C3.87124902,6.9406597 3.87124902,9.56399723 3.87124902,12.1466629 C4.36962535,12.1466629 4.91686211,12.1466629 5.43478261,12.1466629 C5.43478261,13.1736283 5.43478261,14.1904258 5.43478261,15.2173913 C3.86147694,15.2173913 2.29794335,15.2173913 0.724637681,15.2173913 C0.724637681,11.5975922 0.724637681,7.96762517 0.724637681,4.34782609 C1.77025077,4.34782609 2.81586385,4.34782609 3.87124902,4.34782609 Z" id="Path" fill="#B9C7D4"></path>
                    <path d="M0.0102111238,0 C3.50241546,0 7.02525317,0 10.5072464,0 C10.5072464,2.99190643 10.5072464,6.06606458 10.5072464,9.05797101 C6.41258574,3.83498659 10.5072464,9.05797101 6.41258574,3.83498659 C4.27846087,3.83498659 2.13412487,3.83498659 0,3.83498659 C0.0102111238,2.59092928 0.0102111238,0.0616887924 0.0102111238,0 Z" id="Path" fill="#00467F"></path>
                    <path d="M6.15942029,7.24637681 C7.53305055,8.88612836 8.84517497,10.5855072 10.1983033,12.2351967 C12.3510074,12.2351967 14.5139625,12.2351967 16.6666667,12.2351967 C16.6666667,13.4674948 16.6666667,14.7097308 16.6666667,15.942029 C13.1608342,15.942029 9.66525274,15.942029 6.15942029,15.942029 C6.15942029,13.0401656 6.15942029,10.1482402 6.15942029,7.24637681 Z" id="Path" fill="#00467F"></path>
                    <path d="M10.8695652,3.73435827 C10.8695652,2.71756077 10.8695652,1.74143518 10.8695652,0.724637681 C12.4428507,0.724637681 14.0161363,0.724637681 15.5797101,0.724637681 C15.5797101,4.34443676 15.5797101,7.97440382 15.5797101,11.5942029 C14.5405648,11.5942029 13.4917078,11.5942029 12.4525624,11.5942029 C12.4525624,8.98103334 12.4525624,6.33735985 12.4525624,3.73435827 C11.9281339,3.73435827 10.8792769,3.73435827 10.8695652,3.73435827 Z" id="Path" fill="#B9C7D4"></path>
                </g>
            </g>
        </g>
    </g>
</svg>